<svg width="24" height="24" viewBox="0 0 24 24" fill="none" xmlns="http://www.w3.org/2000/svg">
<path fill-rule="evenodd" clip-rule="evenodd" d="M14.735 3.82801L15.6 2.25401C15.6161 2.21485 15.6172 2.17114 15.603 2.13124C15.5889 2.09133 15.5605 2.05804 15.5234 2.03774C15.4863 2.01743 15.4429 2.01154 15.4017 2.02118C15.3605 2.03083 15.3243 2.05533 15.3 2.09001L14.426 3.68001C13.661 3.34303 12.8339 3.16998 11.998 3.17201C11.129 3.17201 10.308 3.35301 9.574 3.67801L8.698 2.09001C8.68731 2.07023 8.67283 2.05275 8.65538 2.03858C8.63793 2.0244 8.61786 2.01381 8.59631 2.0074C8.57476 2.00099 8.55216 1.9989 8.5298 2.00123C8.50744 2.00357 8.48576 2.01029 8.466 2.02101C8.44603 2.0315 8.42836 2.04588 8.41403 2.0633C8.3997 2.08072 8.38901 2.10084 8.38258 2.12246C8.37615 2.14408 8.37411 2.16677 8.37659 2.18919C8.37906 2.21161 8.386 2.23331 8.397 2.25301L9.263 3.82501C7.563 4.69901 6.413 6.36201 6.414 8.27201L17.58 8.27101C17.58 6.36101 16.434 4.70201 14.735 3.82801ZM9.457 6.25801C9.39567 6.25794 9.33496 6.2458 9.27833 6.22227C9.22169 6.19874 9.17025 6.16429 9.12693 6.12087C9.08361 6.07746 9.04927 6.02594 9.02586 5.96926C9.00245 5.91258 8.99043 5.85184 8.9905 5.79051C8.99057 5.72918 9.00271 5.66847 9.02624 5.61183C9.04977 5.5552 9.08422 5.50376 9.12763 5.46044C9.17105 5.41712 9.22256 5.38277 9.27925 5.35937C9.33593 5.33596 9.39667 5.32394 9.458 5.32401C9.58199 5.32401 9.7009 5.37326 9.78857 5.46094C9.87625 5.54861 9.9255 5.66752 9.9255 5.79151C9.9255 5.9155 9.87625 6.03441 9.78857 6.12208C9.7009 6.20976 9.58199 6.25901 9.458 6.25901L9.457 6.25801ZM17.542 8.70001L17.544 16.712C17.544 17.193 17.282 17.609 16.896 17.839C16.6924 17.9625 16.4591 18.0282 16.221 18.029L15.317 18.03V20.764C15.3168 20.9477 15.2758 21.1291 15.1967 21.295C15.1177 21.4609 15.0027 21.6071 14.8601 21.7229C14.7175 21.8388 14.5509 21.9215 14.3724 21.9649C14.1938 22.0083 14.0079 22.0114 13.828 21.974C13.5492 21.917 13.2985 21.7656 13.1182 21.5454C12.9378 21.3252 12.8389 21.0496 12.838 20.765V18.03H11.163V20.765C11.1625 21.0929 11.0318 21.4072 10.7996 21.6388C10.5675 21.8703 10.2529 22.0003 9.925 22C9.59726 21.9997 9.28298 21.8696 9.05095 21.6382C8.81892 21.4067 8.68806 21.0927 8.687 20.765V18.03H7.786C7.265 18.03 6.819 17.73 6.604 17.294C6.51243 17.114 6.46415 16.915 6.463 16.713L6.461 8.70301L17.542 8.70001ZM4.74 8.47001C5.424 8.47001 5.98 9.02301 5.98 9.70401V14.874C5.97966 15.0976 5.91875 15.317 5.80373 15.5088C5.68871 15.7006 5.52389 15.8577 5.32677 15.9633C5.12965 16.0689 4.9076 16.1192 4.6842 16.1088C4.4608 16.0983 4.24441 16.0276 4.058 15.904C3.88693 15.7921 3.74643 15.6393 3.64919 15.4595C3.55194 15.2797 3.50101 15.0784 3.501 14.874L3.5 9.70301C3.5 9.02301 4.055 8.47001 4.74 8.47001ZM19.26 8.46901C19.944 8.46901 20.5 9.02101 20.5 9.70301V14.872C20.5 15.555 19.945 16.107 19.261 16.107C18.576 16.107 18.021 15.555 18.021 14.872V9.70201C18.021 9.02001 18.575 8.46701 19.259 8.46801L19.26 8.46901ZM14.54 5.32501C14.6031 5.32209 14.6661 5.33199 14.7252 5.35412C14.7844 5.37624 14.8384 5.41013 14.8841 5.45374C14.9298 5.49734 14.9661 5.54976 14.991 5.60782C15.0158 5.66587 15.0286 5.72836 15.0286 5.79151C15.0286 5.85466 15.0158 5.91715 14.991 5.9752C14.9661 6.03326 14.9298 6.08567 14.8841 6.12928C14.8384 6.17289 14.7844 6.20678 14.7252 6.2289C14.6661 6.25103 14.6031 6.26093 14.54 6.25801C14.4769 6.26093 14.4139 6.25103 14.3548 6.2289C14.2956 6.20678 14.2416 6.17289 14.1959 6.12928C14.1502 6.08567 14.1139 6.03326 14.089 5.9752C14.0642 5.91715 14.0514 5.85466 14.0514 5.79151C14.0514 5.72836 14.0642 5.66587 14.089 5.60782C14.1139 5.54976 14.1502 5.49734 14.1959 5.45374C14.2416 5.41013 14.2956 5.37624 14.3548 5.35412C14.4139 5.33199 14.4769 5.32209 14.54 5.32501Z" fill="white"/>
</svg>
