<svg width="24" height="24" viewBox="0 0 24 24" fill="none" xmlns="http://www.w3.org/2000/svg">
<path d="M17.4231 20.9998C16.6387 20.9998 15.5367 20.7162 13.8867 19.7945C11.8801 18.6695 10.3281 17.6308 8.33246 15.6408C6.40831 13.7182 5.47196 12.4734 4.16147 10.0892C2.68099 7.39722 2.93336 5.98614 3.21547 5.38305C3.55143 4.66224 4.04734 4.23112 4.68832 3.80321C5.05239 3.56472 5.43767 3.36028 5.83927 3.19249C5.87946 3.17521 5.91683 3.15874 5.95018 3.14387C6.14911 3.05427 6.45051 2.91887 6.83228 3.06351C7.08707 3.15914 7.31453 3.35481 7.67058 3.70638C8.40077 4.42639 9.39861 6.02993 9.76672 6.81744C10.0139 7.34821 10.1774 7.69857 10.1778 8.09152C10.1778 8.55157 9.94636 8.90635 9.66545 9.28926C9.61281 9.36118 9.56056 9.42988 9.50993 9.49658C9.20411 9.89837 9.137 10.0145 9.1812 10.2218C9.27082 10.6385 9.93912 11.8788 11.0374 12.9745C12.1357 14.0702 13.3405 14.6962 13.7589 14.7853C13.9751 14.8316 14.0936 14.7616 14.5084 14.445C14.5678 14.3996 14.6289 14.3526 14.6928 14.3056C15.1212 13.987 15.4596 13.7616 15.9089 13.7616H15.9113C16.3023 13.7616 16.6371 13.9311 17.1916 14.2108C17.915 14.5756 19.5671 15.5604 20.2916 16.2913C20.6441 16.6464 20.8406 16.8731 20.9366 17.1274C21.0813 17.5103 20.9451 17.8104 20.8563 18.0113C20.8414 18.0447 20.8249 18.0812 20.8076 18.1218C20.6385 18.5226 20.4328 18.907 20.1932 19.2701C19.766 19.909 19.3332 20.4036 18.6106 20.7399C18.2396 20.9154 17.8335 21.0042 17.4231 20.9998Z" fill="white"/>
</svg>
