<svg width="24" height="24" viewBox="0 0 24 24" fill="none" xmlns="http://www.w3.org/2000/svg">
<path d="M11.9899 3.26977C7.24987 3.26977 3.3999 7.12977 3.3999 11.8898C3.3999 16.1598 6.49993 19.6998 10.5499 20.3798V13.6898H8.47986V11.2798H10.5499V9.49977C10.5499 7.43977 11.7999 6.31977 13.6299 6.31977C14.5099 6.31977 15.2599 6.38977 15.4799 6.40977V8.55977H14.2098C13.2098 8.55977 13.0199 9.03977 13.0199 9.72977V11.2698H15.3999L15.0898 13.6798H13.0199V20.4298C17.2699 19.9098 20.5599 16.2798 20.5599 11.8798C20.5599 7.11977 16.7198 3.25977 11.9698 3.25977L11.9899 3.26977Z" fill="white"/>
</svg>
