<svg width="24" height="24" viewBox="0 0 24 24" fill="none" xmlns="http://www.w3.org/2000/svg">
<path d="M2.57129 8.67764L11.7033 13.4271C11.7949 13.4747 11.8966 13.4996 11.9999 13.4996C12.1031 13.4996 12.2048 13.4747 12.2964 13.4271L21.4284 8.6785V16.9285C21.4285 17.64 21.1562 18.3246 20.6676 18.8418C20.1789 19.359 19.5108 19.6696 18.8004 19.7099L18.6427 19.7142H5.357C4.64546 19.7143 3.96086 19.442 3.44366 18.9534C2.92646 18.4647 2.61586 17.7966 2.57557 17.0862L2.57129 16.9285V8.67764ZM5.357 4.28564H18.6427C19.3543 4.2856 20.0389 4.55783 20.5561 5.04651C21.0733 5.53518 21.3839 6.20324 21.4241 6.91364L21.4284 7.07136V7.22907L11.9999 12.1319L2.57129 7.22907V7.07136C2.57124 6.35981 2.84348 5.67522 3.33215 5.15802C3.82082 4.64082 4.48888 4.33021 5.19929 4.28993L5.357 4.28564Z" fill="white"/>
</svg>
