<svg width="24" height="24" viewBox="0 0 24 24" fill="none" xmlns="http://www.w3.org/2000/svg">
<path d="M22.61 5.98C21.84 6.32 21.0301 6.54 20.1801 6.65C21.0601 6.13 21.72 5.31 22.04 4.32C21.22 4.81 20.32 5.15 19.36 5.34C18.58 4.51 17.48 4 16.27 4C13.93 4 12.05 5.9 12.05 8.22C12.05 8.55 12.08 8.88 12.15 9.18C8.64002 9.01 5.53006 7.33 3.44006 4.76C3.08006 5.39 2.85999 6.12 2.85999 6.9C2.85999 8.36 3.60999 9.66 4.73999 10.41C4.05999 10.4 3.39996 10.2 2.82996 9.89V9.94C2.82996 11.99 4.28996 13.7 6.20996 14.09C5.86996 14.18 5.48998 14.23 5.09998 14.23C4.82998 14.23 4.56005 14.21 4.30005 14.16C4.85005 15.83 6.4 17.06 8.25 17.1C6.81 18.22 4.99001 18.9 3.01001 18.9C2.66001 18.9 2.33 18.88 2 18.84C3.87 20.05 6.08998 20.74 8.47998 20.74C16.25 20.74 20.5 14.3 20.5 8.72C20.5 8.53 20.5 8.35 20.48 8.17C21.32 7.57 22.02 6.83 22.6 5.98H22.61Z" fill="#828BA2"/>
</svg>
